<?xml version="1.0" encoding="UTF-8" standalone="no"?>
<!-- Created with Inkscape (http://www.inkscape.org/) -->

<svg
   xmlns:dc="http://purl.org/dc/elements/1.1/"
   xmlns:cc="http://creativecommons.org/ns#"
   xmlns:rdf="http://www.w3.org/1999/02/22-rdf-syntax-ns#"
   xmlns:svg="http://www.w3.org/2000/svg"
   xmlns="http://www.w3.org/2000/svg"
   xmlns:sodipodi="http://sodipodi.sourceforge.net/DTD/sodipodi-0.dtd"
   xmlns:inkscape="http://www.inkscape.org/namespaces/inkscape"
   width="210mm"
   height="297mm"
   viewBox="0 0 744.09448819 1052.3622047"
   id="svg4269"
   version="1.1"
   inkscape:version="0.91 r"
   sodipodi:docname="Xubuntu logo.svg">
  <defs
     id="defs4271" />
  <sodipodi:namedview
     id="base"
     pagecolor="#ffffff"
     bordercolor="#666666"
     borderopacity="1.0"
     inkscape:pageopacity="0.0"
     inkscape:pageshadow="2"
     inkscape:zoom="0.35"
     inkscape:cx="402.59292"
     inkscape:cy="476.98437"
     inkscape:document-units="px"
     inkscape:current-layer="layer3"
     showgrid="false"
     inkscape:window-width="1024"
     inkscape:window-height="719"
     inkscape:window-x="0"
     inkscape:window-y="25"
     inkscape:window-maximized="1" />
  <metadata
     id="metadata4274">
    <rdf:RDF>
      <cc:Work
         rdf:about="">
        <dc:format>image/svg+xml</dc:format>
        <dc:type
           rdf:resource="http://purl.org/dc/dcmitype/StillImage" />
        <dc:title></dc:title>
      </cc:Work>
    </rdf:RDF>
  </metadata>
  <g
     inkscape:groupmode="layer"
     id="layer3"
     inkscape:label="Capa 2"
     style="display:inline">
    <path
       style="fill:#0044aa;fill-opacity:1"
       d="M 370.03917,158.71129 C 252.84716,159.26886 138.78329,221.85661 75.1428,320.23692 32.757361,383.3402 10.672182,459.95431 16.237811,536.04688 c 3.094182,90.98392 43.550014,180.41718 111.630609,241.21909 57.98281,59.36754 139.72425,93.08197 221.76818,99.63794 58.81689,1.35735 118.76252,-5.54317 172.22995,-31.65397 C 644.5554,791.3314 730.19132,663.97377 732.86843,529.85526 737.62635,430.46659 697.25895,330.80241 625.14526,262.33258 559.2018,195.02061 464.01315,157.29443 370.03917,158.71129 Z m 123.89509,135.40737 c 10.76431,9.97328 5.43469,28.61225 6.07703,41.91406 -3.93472,36.81506 -5.90014,75.42384 -20.06697,109.99999 -4.62535,7.53092 -15.07872,2.01832 -12.75112,-6.45646 1.0232,-46.58393 6.78909,-93.71636 20.02232,-138.48773 1.3452,-2.77957 3.3046,-6.5605 6.71874,-6.96986 z m 100.42969,20.5971 c 8.92094,4.65217 -1.83175,17.37082 -2.75623,24.3475 -19.1172,42.82324 -38.84117,86.66806 -67.69577,123.98397 -9.38829,10.69797 -16.53146,-7.128 -12.90738,-14.99443 10.90212,-42.5887 34.99546,-81.38193 61.0212,-116.36718 6.19635,-6.41408 12.67115,-16.1731 22.33818,-16.96986 z m -287.04798,12.63393 c 28.75118,0.25276 39.07872,33.52513 41.1436,57.12072 3.95666,21.87525 4.31306,44.82645 7.50038,66.28887 70.76331,12.74289 147.15854,21.8134 206.72431,65.61943 21.74449,16.90157 43.80077,49.65783 25.95983,76.50669 -31.36003,43.00086 -82.31172,65.28348 -128.29003,89.30568 -63.80191,29.71375 -131.45349,58.86612 -202.77024,60.42646 -41.13491,1.615 -83.42942,-21.81777 -97.62277,-61.83034 -23.4062,-67.75334 -0.90608,-140.4216 20.5971,-205.73663 -6.22324,-32.11006 -19.97832,-70.14445 0.37389,-99.99441 9.3384,-12.13698 28.07987,-18.64 39.70424,-5.73103 26.34902,21.961 32.61931,58.55497 53.74442,84.22433 10.19298,5.25462 6.42254,-10.93009 4.4029,-15.80915 -5.8345,-29.91628 -18.35763,-63.67424 -3.66629,-92.83482 6.93452,-10.55026 19.69998,-17.03749 32.19866,-17.5558 z"
       id="path4291"
       inkscape:connector-curvature="0" />
    <path
       style="fill:#0044aa;fill-opacity:1"
       d="M 364.09052,159.97803 C 224.47867,158.8181 93.543845,254.14549 41.688308,382.13094 13.485546,447.24911 9.8227222,520.90934 21.841634,590.17334 c 17.540263,80.81063 62.184597,155.51323 127.261246,206.98612 95.43561,80.31208 234.98201,102.51768 351.03015,57.1006 58.79812,-20.7396 109.55726,-59.31189 149.68852,-106.58672 C 750.19052,633.18071 760.45032,452.37354 677.3732,325.47801 611.03857,220.43175 489.25012,152.48313 364.09052,159.97803 Z m 129.4922,133.92857 c 10.04214,7.35362 4.16283,23.97182 5.70868,34.73215 -3.03225,38.56671 -4.17965,78.93047 -19.04574,114.97768 -3.33949,8.17128 -15.40777,7.26148 -12.80691,-3.00223 0.40791,-46.73682 6.02214,-94.01092 19.87162,-138.69978 1.51798,-2.59573 2.60403,-7.54989 6.27235,-8.00782 z m 100.5636,20.97099 c 9.453,3.32195 -1.13003,16.54193 -2.00335,22.85714 -19.60768,43.73964 -39.91528,88.12527 -69.10714,126.28907 -10.96714,9.22888 -15.17031,-10.81614 -11.67411,-18.26452 12.35663,-43.23531 36.88074,-82.63058 64.6038,-117.79576 5.1094,-5.20648 10.50531,-12.06763 18.1808,-13.08593 z m -286.45646,12.76227 c 27.63391,2.16847 38.58143,34.18042 40.91517,57.7567 4.11549,21.7232 4.221,44.55376 5.9654,65.95424 59.05163,8.22663 118.81723,19.83431 173.56586,43.94531 32.06994,15.8588 69.49903,44.16572 65.95423,83.91183 -9.08772,32.3456 -42.52426,49.6662 -68.33629,67.3438 -70.25617,41.13929 -146.01971,75.99306 -226.0666,92.07026 -43.06465,6.0144 -95.36834,5.44083 -124.81586,-32.12612 -21.53222,-25.30825 -24.89249,-59.07837 -22.97391,-91.18857 -2.07877,-48.7368 13.30427,-95.63231 29.13462,-141.05471 -7.24781,-32.43313 -20.25639,-71.57245 1.5346,-101.28349 11.74425,-15.21652 35.10716,-11.57881 45.3125,3.58817 21.51457,21.97067 26.58481,55.20159 47.08705,77.5502 11.14219,3.42478 3.56989,-13.95327 3.25893,-19.13503 -5.59765,-28.9149 -15.86664,-61.33417 -3.16406,-89.52009 7.41104,-10.41589 19.85199,-17.1025 32.62836,-17.8125 z"
       id="path4293"
       inkscape:connector-curvature="0" />
    <path
       style="fill:#0044aa;fill-opacity:1"
       d="M 366.32823,158.795 C 233.39331,159.97497 106.08727,242.65414 50.040822,363.01948 20.684519,421.6529 11.111504,488.23117 16.76909,553.19791 22.202472,617.92846 48.170088,680.63097 86.010162,733.06954 165.77405,841.02748 308.90246,898.2884 440.87066,871.2392 568.15809,847.37928 679.576,750.77863 716.65649,626.01963 752.86412,514.80931 729.88232,386.87652 656.30863,295.79586 588.01129,207.1504 478.13312,155.64602 366.32823,158.795 Z m 127.25449,135.1116 c 10.03,7.37948 4.15548,24.05208 5.69194,34.82143 -2.95306,38.61685 -4.45477,78.88474 -19.15177,115.16743 -3.46449,7.94894 -15.33277,6.83062 -12.68414,-3.28126 0.40791,-46.73682 6.02214,-94.01092 19.87162,-138.69978 1.51798,-2.59573 2.60403,-7.54989 6.27235,-8.00782 z m 100.1116,21.23326 c 9.49548,3.48377 -1.60986,17.4307 -2.51675,23.98438 -18.17385,43.03351 -38.6232,86.65706 -67.71762,123.19753 -9.39935,6.94223 -16.30806,-4.67814 -12.8404,-13.24217 11.98662,-45.09546 37.40937,-86.26996 66.37277,-122.53906 4.69171,-4.51279 9.54971,-11.48186 16.702,-11.40068 z M 307.3662,327.27714 c 29.94486,5.01537 41.6768,39.11405 41.99117,65.80762 2.79195,19.31115 2.37466,39.7665 6.29006,58.41672 58.19046,8.09646 117.02372,19.67206 171.0586,43.17206 30.63709,15.62777 66.38517,40.77089 68.16017,78.25652 -2.90414,31.08508 -34.1276,48.82611 -57.02725,65.508 -73.12232,45.82982 -153.305,83.05162 -238.14575,100.17837 -42.22133,5.81714 -93.3816,5.63708 -123.17523,-30.12277 -22.62758,-25.46203 -26.69736,-60.46803 -24.70531,-93.19195 -1.81265,-48.64605 13.93403,-95.35168 29.25889,-140.86497 -7.00704,-32.64292 -22.24792,-73.57499 3.64955,-101.91964 10.59787,-14.23814 31.50039,-11.07792 41.52344,2.32701 22.68074,22.18696 27.62359,56.25375 48.55469,79.202 10.88082,3.81875 4.32102,-13.08708 3.77232,-18.18638 -4.65454,-29.45078 -19.02232,-63.52711 -1.95313,-91.48995 7.14543,-9.44664 18.76087,-16.5859 30.74778,-17.09264 z"
       id="path4295"
       inkscape:connector-curvature="0" />
    <path
       style="fill:#ffffff;fill-opacity:1"
       d="m 306.93092,328.06397 c -20.03147,2.33217 -38.27649,19.13916 -36.45089,40.41295 -3.27078,29.47954 10.63774,58.01413 8.54352,86.94196 -9.9876,-2.89555 -14.38512,-18.01412 -20.53571,-26.29464 -14.30111,-23.23255 -24.48083,-56.11929 -53.14732,-64.87723 -26.13407,-0.58183 -35.89295,30.86455 -34.06808,52.41071 -1.34683,25.63647 15.46117,51.04488 4.14006,75.85831 -19.39387,61.94771 -37.33768,131.95148 -11.85212,194.80017 16.10163,34.74197 54.05141,54.2152 91.53274,52.95477 71.95806,2.17531 139.25054,-29.57466 203.26377,-58.67897 44.61623,-23.33823 92.28994,-45.8072 126.38094,-83.9354 19.2888,-26.22972 1.78192,-62.19822 -22.0424,-78.90624 -59.86851,-44.49511 -136.65744,-55.05334 -208.20312,-67.63951 -5.06506,-33.02663 -1.48783,-69.2447 -16.62389,-99.87165 -6.97333,-10.21704 -17.32384,-23.29996 -30.9375,-23.17523 z"
       id="path4301"
       inkscape:connector-curvature="0" />
    <path
       style="fill:#ffffff;fill-opacity:1"
       d="m 592.93897,314.20821 c -6.34356,1.07298 -11.03418,6.11636 -15.27902,10.55525 -10.79546,12.36516 -20.10583,25.95007 -29.13004,39.63655 -17.19695,26.72277 -31.72486,55.60883 -39.2963,86.60717 -0.26809,3.69319 0.23703,7.68477 2.14425,10.91657 2.7679,4.33713 9.48018,4.57108 12.81599,0.81543 6.95184,-8.05078 12.84479,-16.97002 18.68423,-25.8456 16.06621,-25.35942 28.97127,-52.54704 41.57892,-79.74134 3.29618,-7.24244 6.61924,-14.49664 9.13487,-22.04699 1.88013,-5.13923 5.29345,-10.19791 4.80469,-15.8796 -0.36028,-2.67032 -2.71347,-4.9972 -5.45759,-5.01744 z"
       id="path4303"
       inkscape:connector-curvature="0" />
    <path
       style="fill:#ffffff;fill-opacity:1"
       d="m 493.271,293.26164 c -4.05952,0.88712 -5.57007,5.49709 -6.90944,8.91604 -7.51756,22.79761 -11.90272,46.51213 -15.13097,70.26019 -3.19523,23.74123 -4.6625,47.6975 -4.92109,71.6406 0.26416,2.60342 2.44102,4.90171 4.82213,5.83845 4.33363,0.99866 8.71093,-2.31247 10.14579,-6.3072 12.18227,-30.25247 15.13609,-63.11444 17.59207,-95.33622 0.64831,-8.88504 1.41758,-17.82508 1.28611,-26.706 0.0762,-8.21358 1.99901,-17.2654 -2.56471,-24.71071 -1.08586,-1.44527 -2.27317,-3.56912 -4.31989,-3.59515 z"
       id="path4305"
       inkscape:connector-curvature="0" />
    <path
       style="fill:#ffffff;fill-opacity:1"
       d="m 306.3854,327.71733 c -19.07696,2.37831 -37.7007,17.49796 -36.72852,38.15298 -3.26443,29.50861 8.87286,57.88417 8.31798,87.01123 -1.92591,3.33194 -6.0317,-4.75758 -7.79712,-6.39632 -18.39166,-24.91101 -26.4183,-57.76953 -51.17053,-77.67915 -10.32359,-6.71244 -26.7065,-8.69218 -34.03741,3.4724 -22.18069,23.00613 -13.64885,57.70418 -8.36005,85.54551 7.73539,18.52575 -3.82766,36.06786 -7.97996,54.02127 -16.30692,50.29691 -22.57513,104.47618 -12.88733,156.72359 9.96454,40.54591 48.12206,71.26398 89.8799,72.09174 35.58333,2.16599 71.02359,-3.45981 104.78165,-14.62273 67.74037,-20.85643 132.02948,-52.5592 191.68281,-90.64551 19.6467,-14.70049 44.82322,-29.25369 50.96092,-54.78964 5.57922,-33.9007 -22.56973,-61.46172 -49.67897,-76.60586 -57.40103,-32.40452 -123.76208,-41.3216 -187.38724,-54.02344 -6.27657,-32.90637 -2.14785,-68.73163 -17.362,-99.44478 -7.21929,-10.38695 -18.27819,-23.36783 -32.23413,-22.81129 z"
       id="path4307"
       inkscape:connector-curvature="0" />
  </g>
</svg>
