<?xml version="1.0" encoding="UTF-8" standalone="no"?>
<!-- Created with Inkscape (http://www.inkscape.org/) -->

<svg
   xmlns:dc="http://purl.org/dc/elements/1.1/"
   xmlns:cc="http://creativecommons.org/ns#"
   xmlns:rdf="http://www.w3.org/1999/02/22-rdf-syntax-ns#"
   xmlns:svg="http://www.w3.org/2000/svg"
   xmlns="http://www.w3.org/2000/svg"
   xmlns:sodipodi="http://sodipodi.sourceforge.net/DTD/sodipodi-0.dtd"
   xmlns:inkscape="http://www.inkscape.org/namespaces/inkscape"
   version="1.1"
   id="svg18868"
   xml:space="preserve"
   width="800"
   height="800"
   viewBox="0 0 800 800"
   sodipodi:docname="spiral-logo-shape-svg.svg"
   inkscape:version="0.92.4 (5da689c313, 2019-01-14)"><metadata
     id="metadata18874"><rdf:RDF><cc:Work
         rdf:about=""><dc:format>image/svg+xml</dc:format><dc:type
           rdf:resource="http://purl.org/dc/dcmitype/StillImage" /><dc:title></dc:title></cc:Work></rdf:RDF></metadata><defs
     id="defs18872"><clipPath
       clipPathUnits="userSpaceOnUse"
       id="clipPath18884"><path
         d="M 0,600 H 600 V 0 H 0 Z"
         id="path18882"
         inkscape:connector-curvature="0" /></clipPath><linearGradient
       x1="0"
       y1="0"
       x2="1"
       y2="0"
       gradientUnits="userSpaceOnUse"
       gradientTransform="matrix(401.98145,0,0,-401.98145,109.3877,320.31787)"
       spreadMethod="pad"
       id="linearGradient18910"><stop
         style="stop-opacity:1;stop-color:#fff424"
         offset="0"
         id="stop18898" /><stop
         style="stop-opacity:1;stop-color:#fac308"
         offset="0.13312686"
         id="stop18900" /><stop
         style="stop-opacity:1;stop-color:#fac308"
         offset="0.280899"
         id="stop18902" /><stop
         style="stop-opacity:1;stop-color:#f3812f"
         offset="0.668539"
         id="stop18904" /><stop
         style="stop-opacity:1;stop-color:#ee5233"
         offset="0.88764"
         id="stop18906" /><stop
         style="stop-opacity:1;stop-color:#ea2c35"
         offset="1"
         id="stop18908" /></linearGradient></defs><sodipodi:namedview
     pagecolor="#ffffff"
     bordercolor="#666666"
     borderopacity="1"
     objecttolerance="10"
     gridtolerance="10"
     guidetolerance="10"
     inkscape:pageopacity="0"
     inkscape:pageshadow="2"
     inkscape:window-width="1920"
     inkscape:window-height="1018"
     id="namedview18870"
     showgrid="false"
     inkscape:zoom="0.89768817"
     inkscape:cx="454.23729"
     inkscape:cy="398.30508"
     inkscape:window-x="-8"
     inkscape:window-y="-8"
     inkscape:window-maximized="1"
     inkscape:current-layer="g18876" /><g
     id="g18876"
     inkscape:groupmode="layer"
     inkscape:label="logotype-element-19-publicdomainvectors.org"
     transform="matrix(1.3333333,0,0,-1.3333333,0,800)"><g
       id="g18878"><g
         id="g18880"
         clip-path="url(#clipPath18884)"><g
           id="g18886"><g
             id="g18888"><g
               id="g18894"><g
                 id="g18896"><path
                   d="m 310.379,316.955 c 85.606,-101.429 195.713,17.002 200.99,27.266 l -31.04,20.246 c 0,0 -65.098,-130.617 -169.95,-47.512 m 0.87,0.115 c 108.94,-75.816 184.645,67.076 187.086,78.357 l -35.224,11.523 c 0,0 -29.072,-143.016 -151.862,-89.88 m 0.812,0.336 c 124.851,-45.037 160.992,112.581 160.43,124.108 l -37.006,2.013 c 0,0 8.934,-145.667 -123.424,-126.121 m 0.695,0.534 c 132.255,-11.188 126.369,150.413 122.843,161.402 l -36.266,-7.632 c 0,0 46.332,-138.392 -86.577,-153.77 m 0.535,0.697 c 130.643,23.423 83.133,177.994 76.882,187.696 l -33.054,-16.758 c 0,0 80.57,-121.686 -43.828,-170.938 m 0.335,0.81 c 120.131,56.439 34.232,193.446 25.684,201.2 l -27.59,-24.743 c 0,0 109.32,-96.685 1.906,-176.457 m 0.115,0.871 C 415.17,405.925 296.74,516.032 286.475,521.309 l -20.246,-31.04 c 0,0 130.62,-65.098 47.512,-169.951 m -0.115,0.87 C 389.442,430.13 246.55,505.833 235.27,508.273 l -11.523,-35.222 c 0,0 143.017,-29.073 89.879,-151.863 m -0.335,0.811 C 358.327,446.852 200.709,482.992 189.182,482.43 l -2.014,-37.005 c 0,0 145.668,8.934 126.123,-123.426 m -0.535,0.697 C 323.943,454.95 162.344,449.065 151.354,445.538 l 7.632,-36.266 c 0,0 138.393,46.332 153.77,-86.576 m -0.695,0.534 c -23.424,130.644 -177.996,83.134 -187.697,76.882 l 16.758,-33.053 c 0,0 121.686,80.57 170.939,-43.829 m -0.812,0.336 c -56.438,120.13 -193.445,34.233 -201.2,25.684 l 24.743,-27.59 c 0,0 96.686,109.319 176.457,1.906 m -0.87,0.115 C 224.771,425.11 114.665,306.679 109.388,296.414 l 31.04,-20.246 c 0,0 65.097,130.619 169.951,47.513 m -0.871,-0.115 C 200.567,399.382 124.863,256.489 122.422,245.209 l 35.224,-11.522 c 0,0 29.072,143.017 151.862,89.879 m -0.812,-0.336 C 183.845,368.267 147.705,210.649 148.266,199.122 l 37.005,-2.015 c 0,0 -8.934,145.668 123.425,126.123 m -0.695,-0.534 C 175.747,333.884 181.632,172.284 185.158,161.293 l 36.266,7.634 c 0,0 -46.332,138.392 86.577,153.769 m -0.535,-0.697 C 176.823,298.576 224.333,144.005 230.584,134.304 l 33.054,16.759 c 0,0 -80.571,121.684 43.828,170.936 m -0.335,-0.811 C 187,264.752 272.898,127.743 281.447,119.989 l 27.59,24.742 c 0,0 -109.32,96.686 -1.906,176.457 m -0.115,-0.87 C 205.587,234.711 324.018,124.604 334.281,119.327 l 20.247,31.04 c 0,0 -130.619,65.098 -47.512,169.951 m 0.115,-0.871 c -75.817,-108.94 67.076,-184.643 78.356,-187.084 l 11.523,35.222 c 0,0 -143.017,29.072 -89.879,151.862 m 0.335,-0.81 C 262.43,193.784 420.047,157.644 431.574,158.205 l 2.015,37.006 c 0,0 -145.668,-8.934 -126.123,123.426 m 0.535,-0.697 C 296.813,185.686 458.412,191.571 469.401,195.099 l -7.631,36.264 c 0,0 -138.392,-46.33 -153.769,86.577 m 0.695,-0.534 C 332.12,186.763 486.691,234.272 496.393,240.523 l -16.758,33.053 c 0,0 -121.686,-80.569 -170.939,43.83 m 0.812,-0.336 c 56.438,-120.131 193.445,-34.232 201.199,-25.683 l -24.742,27.59 c 0,0 -96.686,-109.321 -176.457,-1.907"
                   style="fill:url(#linearGradient18910);stroke:none"
                   id="path18912"
                   inkscape:connector-curvature="0" /></g></g></g></g></g></g></g></svg>